<svg xmlns="http://www.w3.org/2000/svg" width="88.283" height="88" viewBox="0 0 88.283 88">
  <g id="Group_9010" data-name="Group 9010" transform="translate(-822 -2740)">
    <rect id="Rectangle_1749" data-name="Rectangle 1749" width="88" height="88" transform="translate(822 2740)" fill="#fff"/>
    <rect id="Rectangle_1749-2" data-name="Rectangle 1749" width="88" height="88" transform="translate(822 2740)" fill="#fff"/>
    <g id="svgexport-6_6_" data-name="svgexport-6 (6)" transform="translate(822 2739.18)">
      <g id="Group_9007" data-name="Group 9007" transform="translate(62.163 62.882)">
        <g id="Group_9006" data-name="Group 9006">
          <path id="Path_11596" data-name="Path 11596" d="M376.47,360.848a1.3,1.3,0,0,0-1.412.281L360.9,375.289a1.3,1.3,0,0,0,.916,2.212h14.161a1.3,1.3,0,0,0,1.3-1.3V362.045A1.3,1.3,0,0,0,376.47,360.848ZM364.941,374.91l9.737-9.737v9.737Z" transform="translate(-360.517 -360.749)" fill="#a27a34"/>
        </g>
      </g>
      <g id="Group_9009" data-name="Group 9009" transform="translate(0 0.82)">
        <g id="Group_9008" data-name="Group 9008" transform="translate(0 0)">
          <path id="Path_11597" data-name="Path 11597" d="M87.483,42.211a1.3,1.3,0,0,0-1.412.281L82.19,46.372V19.986a1.3,1.3,0,0,0-1.3-1.3H70.938l3.614-3.614,0,0,3.482-3.482a3.952,3.952,0,0,0,0-5.588L74.009,1.977a3.952,3.952,0,0,0-5.588,0L64.938,5.461l-4.21,4.21L51.709,18.69H11.487V5.87a1.3,1.3,0,0,0-1.3-1.3A10.2,10.2,0,0,0,0,14.766V69.8a1.3,1.3,0,0,0,.031.278,9.815,9.815,0,0,0,9.785,9.069h39.6l-7.457,7.457a1.3,1.3,0,0,0,.916,2.212H86.987a1.3,1.3,0,0,0,1.3-1.3V43.408A1.3,1.3,0,0,0,87.483,42.211ZM70.255,3.81a1.361,1.361,0,0,1,1.922,0L76.2,7.837a1.361,1.361,0,0,1,0,1.923l-2.568,2.568-5.95-5.95Zm-4.4,4.4L71.8,14.16l-2.378,2.378-5.949-5.949ZM85.692,57.968H83.3a1.3,1.3,0,0,0,0,2.592h2.391v3.9H83.3a1.3,1.3,0,0,0,0,2.592h2.391v3.9H83.3a1.3,1.3,0,0,0,0,2.592h2.391v3.9H83.3a1.3,1.3,0,0,0,0,2.592h2.391v6.18H46L59.088,73.14a1.3,1.3,0,0,0-1.833-1.833L52,76.559H9.816A7.183,7.183,0,0,1,2.6,69.568q.011-.369.057-.732v0q.022-.172.052-.342l.007-.039q.027-.152.061-.3c.006-.028.013-.056.019-.084q.029-.127.064-.253c.012-.046.025-.091.039-.136.019-.066.039-.132.059-.2s.043-.129.066-.194c.016-.045.031-.09.048-.135.032-.085.065-.169.1-.252l.03-.072c.044-.1.09-.206.139-.307l.006-.013a7.628,7.628,0,0,1,5.3-4.146l.02,0c.107-.022.216-.041.325-.058l.055-.009c.1-.015.2-.027.3-.038l.084-.01c.1-.01.193-.016.29-.022l.092-.007q.19-.01.383-.01a1.3,1.3,0,0,0,1.3-1.3v-9.4a1.3,1.3,0,1,0-2.592,0v8.181a10.121,10.121,0,0,0-5.821,2.817c-.168.164-.328.336-.484.509V14.766a7.613,7.613,0,0,1,6.3-7.49V46.329h0a1.3,1.3,0,1,0,2.592,0h0V21.281H49.118l-7.163,7.163a1.3,1.3,0,0,0,1.832,1.833L53.162,20.9h0l8.481-8.481,5.949,5.95-.7.7,0,0L40.766,45.2l-5.949-5.949,5.15-5.15a1.3,1.3,0,1,0-1.832-1.833l-6.067,6.066a1.3,1.3,0,0,0-.091.1c-.009.012-.018.024-.027.037s-.036.049-.053.074-.018.03-.027.045-.028.049-.041.074-.016.033-.023.049-.022.051-.032.077c0,.009-.008.018-.011.027l-2.525,7.151-1.721,4.876a1.31,1.31,0,0,0-.051.2H23.156a1.3,1.3,0,0,0,0,2.592H59.04a1.3,1.3,0,1,0,0-2.592H33.295l7.9-2.79.019-.008c.031-.011.061-.024.091-.038l.035-.016c.031-.016.062-.033.092-.051l.029-.017c.031-.02.062-.042.091-.065l.022-.017a1.3,1.3,0,0,0,.1-.094L68.347,21.282H79.6V48.964L61.063,67.5a1.3,1.3,0,0,0,0,1.833,1.324,1.324,0,0,0,.1.089,1.295,1.295,0,0,0,1.734-.089h0l22.8-22.8ZM38.4,46.492,34.684,47.8l-2.473-2.473,1.31-3.712Z" transform="translate(0 -0.82)" fill="#a27a34"/>
        </g>
      </g>
    </g>
  </g>
</svg>
