<svg xmlns="http://www.w3.org/2000/svg" width="86.668" height="88" viewBox="0 0 86.668 88">
  <g id="svgexport-6_5_" data-name="svgexport-6 (5)" transform="translate(-3.874)">
    <g id="Group_8995" data-name="Group 8995" transform="translate(19.264 10.337)">
      <g id="Group_8994" data-name="Group 8994">
        <path id="Path_11590" data-name="Path 11590" d="M117.7,60.141H95.823a2.409,2.409,0,0,0-2.406,2.406V89.873a2.409,2.409,0,0,0,2.406,2.406H117.7a2.409,2.409,0,0,0,2.406-2.406V62.547A2.409,2.409,0,0,0,117.7,60.141Zm-.1,29.634H95.922V62.646H117.6Z" transform="translate(-93.417 -60.141)" fill="#a27a34"/>
      </g>
    </g>
    <g id="Group_8997" data-name="Group 8997" transform="translate(19.264 45.313)">
      <g id="Group_8996" data-name="Group 8996">
        <path id="Path_11591" data-name="Path 11591" d="M117.7,263.639H95.823a2.409,2.409,0,0,0-2.406,2.406v27.326a2.409,2.409,0,0,0,2.406,2.406H117.7a2.409,2.409,0,0,0,2.406-2.406V266.045A2.409,2.409,0,0,0,117.7,263.639Zm-.1,29.634H95.922V266.144H117.6Z" transform="translate(-93.417 -263.639)" fill="#a27a34"/>
      </g>
    </g>
    <g id="Group_8999" data-name="Group 8999" transform="translate(48.46 10.337)">
      <g id="Group_8998" data-name="Group 8998">
        <path id="Path_11592" data-name="Path 11592" d="M287.568,60.141H265.689a2.409,2.409,0,0,0-2.407,2.406V89.873a2.409,2.409,0,0,0,2.407,2.406h21.879a2.409,2.409,0,0,0,2.407-2.406V62.547A2.409,2.409,0,0,0,287.568,60.141Zm-.1,29.634H265.787V62.646H287.47Z" transform="translate(-263.282 -60.141)" fill="#a27a34"/>
      </g>
    </g>
    <g id="Group_9001" data-name="Group 9001" transform="translate(48.46 45.313)">
      <g id="Group_9000" data-name="Group 9000">
        <path id="Path_11593" data-name="Path 11593" d="M287.568,263.639H265.689a2.409,2.409,0,0,0-2.407,2.406v27.326a2.409,2.409,0,0,0,2.407,2.406h21.879a2.409,2.409,0,0,0,2.407-2.406V266.045A2.409,2.409,0,0,0,287.568,263.639Zm-.1,29.634H265.787V266.144H287.47Z" transform="translate(-263.282 -263.639)" fill="#a27a34"/>
      </g>
    </g>
    <g id="Group_9003" data-name="Group 9003" transform="translate(3.874 5.493)">
      <g id="Group_9002" data-name="Group 9002">
        <path id="Path_11594" data-name="Path 11594" d="M88.032,105.462H85.489V45.39a1.252,1.252,0,1,0-2.5,0v60.072H80v-70.8a2.7,2.7,0,0,0-2.7-2.7H17.121a2.7,2.7,0,0,0-2.7,2.7v70.8H11.432V93.114a1.252,1.252,0,0,0-2.5,0v12.348H6.384a2.513,2.513,0,0,0-2.51,2.51v3.986a2.513,2.513,0,0,0,2.51,2.51H88.032a2.513,2.513,0,0,0,2.51-2.51v-3.986A2.513,2.513,0,0,0,88.032,105.462Zm-71.107-70.8a.2.2,0,0,1,.2-.2H77.3a.2.2,0,0,1,.2.2v70.8H16.926Zm71.109,77.3h0l-81.654-.005.005-3.992,81.653.005Z" transform="translate(-3.874 -31.962)" fill="#a27a34"/>
      </g>
    </g>
    <g id="Group_9005" data-name="Group 9005" transform="translate(8.927)">
      <g id="Group_9004" data-name="Group 9004">
        <path id="Path_11595" data-name="Path 11595" d="M107.474,0H35.638a2.366,2.366,0,0,0-2.363,2.363V60.7a1.252,1.252,0,0,0,2.5,0V2.5h71.552V12.962a1.252,1.252,0,1,0,2.5,0V2.363A2.366,2.366,0,0,0,107.474,0Z" transform="translate(-33.275)" fill="#a27a34"/>
      </g>
    </g>
  </g>
</svg>
