<svg xmlns="http://www.w3.org/2000/svg" width="88" height="88" viewBox="0 0 88 88">
  <g id="Group_9012" data-name="Group 9012" transform="translate(-407 -2740)">
    <rect id="Rectangle_1749" data-name="Rectangle 1749" width="88" height="88" transform="translate(407 2740)" fill="#fff"/>
    <g id="svgexport-6_7_" data-name="svgexport-6 (7)" transform="translate(406.992 2740)">
      <g id="Group_9011" data-name="Group 9011" transform="translate(0.008 0)">
        <path id="Path_11598" data-name="Path 11598" d="M43.969,55.86a1.289,1.289,0,1,0,1.289,1.289,1.289,1.289,0,0,0-1.289-1.289ZM45.3,49.388a4.865,4.865,0,0,0,2.224-1.333,4.806,4.806,0,0,0,1.325-3.591,4.844,4.844,0,0,0-9.682.256,1.289,1.289,0,0,0,2.578,0,2.307,2.307,0,0,1,.022-.318,2.266,2.266,0,0,1,2.245-1.949h.047a2.266,2.266,0,0,1,1.6,3.826,2.246,2.246,0,0,1-1.643.707,1.289,1.289,0,0,0-1.289,1.289v3.718a1.289,1.289,0,1,0,2.578,0v-2.6ZM31.632,2.578h34.3a5.592,5.592,0,0,1,5.586,5.586v31.78l-2.2-2.2a1.289,1.289,0,0,0-1.823,1.823l4.375,4.375a1.286,1.286,0,0,0,.912.377h.012a1.292,1.292,0,0,0,1.047-.524l4.228-4.228a1.289,1.289,0,0,0-1.823-1.823L74.091,39.9V8.164A8.173,8.173,0,0,0,65.927,0h-34.3a1.289,1.289,0,1,0,0,2.578ZM27.854,36.825a5.019,5.019,0,0,0,2.489-5.45,15.532,15.532,0,0,0-8.436-10.569A8.827,8.827,0,0,0,24.1,14.977V5.732A5.738,5.738,0,0,0,18.369,0H12.1A5.738,5.738,0,0,0,6.367,5.732v9.246A8.827,8.827,0,0,0,8.56,20.8,15.535,15.535,0,0,0,.126,31.377a5.019,5.019,0,0,0,2.487,5.45,26.138,26.138,0,0,0,25.241,0ZM8.945,5.732A3.157,3.157,0,0,1,12.1,2.578h6.271a3.157,3.157,0,0,1,3.153,3.153V8.975a9.291,9.291,0,0,0-7.848-.931L8.945,9.6Zm0,6.585,5.536-1.824a6.739,6.739,0,0,1,5.909.815l1.133.762v2.907a6.289,6.289,0,0,1-12.577,0Zm-6.3,19.626a12.952,12.952,0,0,1,4.475-7.194,12.8,12.8,0,0,1,3.691-2.093,8.835,8.835,0,0,0,8.853,0,12.941,12.941,0,0,1,8.167,9.286,2.428,2.428,0,0,1-1.221,2.628,23.561,23.561,0,0,1-22.746,0,2.428,2.428,0,0,1-1.219-2.629ZM87.888,79.3a15.529,15.529,0,0,0-8.435-10.57A8.827,8.827,0,0,0,81.646,62.9V53.658a5.738,5.738,0,0,0-5.731-5.732H69.644a5.738,5.738,0,0,0-5.732,5.732V62.9A8.827,8.827,0,0,0,66.1,68.73,15.546,15.546,0,0,0,57.671,79.3a5.018,5.018,0,0,0,2.488,5.45,26.031,26.031,0,0,0,4.652,2.009,1.289,1.289,0,0,0,.786-2.455,23.46,23.46,0,0,1-4.191-1.81,2.427,2.427,0,0,1-1.22-2.628,12.95,12.95,0,0,1,4.477-7.194,12.769,12.769,0,0,1,3.688-2.093,8.835,8.835,0,0,0,8.854,0,12.938,12.938,0,0,1,8.166,9.287A2.427,2.427,0,0,1,84.154,82.5a23.577,23.577,0,0,1-11.375,2.926c-.512,0-1.029-.017-1.536-.049a1.289,1.289,0,0,0-.166,2.573c.562.036,1.135.055,1.7.055A26.156,26.156,0,0,0,85.4,84.752a5.019,5.019,0,0,0,2.487-5.45Zm-8.82-16.4a6.289,6.289,0,1,1-12.577,0V60.242l5.536-1.824a6.739,6.739,0,0,1,5.909.815L79.068,60Zm0-6a9.291,9.291,0,0,0-7.848-.931l-4.729,1.558v-3.87A3.157,3.157,0,0,1,69.644,50.5h6.271a3.157,3.157,0,0,1,3.153,3.153ZM44.007,34.547a14.749,14.749,0,0,0-2.353.189,1.289,1.289,0,1,0,.412,2.545,12.186,12.186,0,0,1,1.941-.155A12.029,12.029,0,1,1,37,39.376a1.289,1.289,0,0,0-1.5-2.094,14.611,14.611,0,1,0,8.511-2.734Zm7.563,50.875H22.087A5.592,5.592,0,0,1,16.5,79.836V48.977l2.175,2.175A1.289,1.289,0,1,0,20.5,49.329l-4.374-4.374a1.3,1.3,0,0,0-1.825,0L9.925,49.329a1.289,1.289,0,1,0,1.823,1.823l2.175-2.175V79.836A8.173,8.173,0,0,0,22.087,88H51.569a1.289,1.289,0,1,0,0-2.578Z" transform="translate(-0.008 0)" fill="#a27a34"/>
      </g>
    </g>
  </g>
</svg>
