<svg xmlns="http://www.w3.org/2000/svg" width="88" height="88" viewBox="0 0 88 88">
  <g id="Group_8993" data-name="Group 8993" transform="translate(-1652 -2740)">
    <rect id="Rectangle_1749" data-name="Rectangle 1749" width="88" height="88" transform="translate(1652 2740)" fill="#fff"/>
    <g id="svgexport-10_1_" data-name="svgexport-10 (1)" transform="translate(1652 2715.402)">
      <g id="Group_8992" data-name="Group 8992" transform="translate(0 29.598)">
        <path id="Path_11586" data-name="Path 11586" d="M7.472,238.54l.444,6.414a1.937,1.937,0,0,0,1.927,1.8H13.1a1.938,1.938,0,0,0,1.927-1.8l.44-6.361H55.207l.44,6.361a1.937,1.937,0,0,0,1.927,1.8h3.253a1.938,1.938,0,0,0,1.927-1.8l.444-6.414a8.429,8.429,0,0,0,7.471-8.364V215.565a7.245,7.245,0,0,0-7.237-7.237H62.1a4.236,4.236,0,0,0-1.681.346v-3.354a7.487,7.487,0,0,0-7.478-7.478H17.73a7.487,7.487,0,0,0-7.478,7.478v3.354a4.236,4.236,0,0,0-1.681-.346H7.237A7.245,7.245,0,0,0,0,215.565v14.611a8.429,8.429,0,0,0,7.472,8.364Zm5.02,5.634H10.446l-.386-5.581h2.819Zm45.686,0-.386-5.581H60.61l-.386,5.581ZM12.829,205.321a4.906,4.906,0,0,1,4.9-4.9H52.94a4.906,4.906,0,0,1,4.9,4.9v12.757H55.526c0-.659,0,2.369,0-6.664a2.591,2.591,0,0,0-2.588-2.588H46.284a2.591,2.591,0,0,0-2.588,2.588c0,9.075,0,6.017,0,6.664H41.25c0-.67,0,2.411,0-6.664a2.591,2.591,0,0,0-2.588-2.588H32.008a2.591,2.591,0,0,0-2.588,2.588c0,9.075,0,6.017,0,6.664H26.974c0-.67,0,2.411,0-6.664a2.591,2.591,0,0,0-2.588-2.588H17.732a2.591,2.591,0,0,0-2.588,2.588c0,9.075,0,6.017,0,6.664H12.829Zm33.444,12.747.01-6.664,6.664.01-.006,6.664C52.924,218.082,51.9,218.077,46.274,218.068Zm-14.276,0,.01-6.664,6.664.01-.006,6.664Zm-14.276,0,.01-6.664,6.664.01-.006,6.664c-.017,0-1.24,0-6.667-.009Zm-15.144-2.5a4.664,4.664,0,0,1,4.658-4.658H8.57a1.683,1.683,0,0,1,1.681,1.681v5.666a4.806,4.806,0,0,0-3.509,4.622v4.709a4.8,4.8,0,0,0,4.8,4.8h4.344a1.289,1.289,0,0,0,0-2.578H11.54a2.222,2.222,0,0,1-2.22-2.22v-4.709a2.222,2.222,0,0,1,2.22-2.22H59.13a2.222,2.222,0,0,1,2.22,2.22v4.709a2.222,2.222,0,0,1-2.22,2.22H21.9a1.289,1.289,0,0,0,0,2.578H59.13a4.8,4.8,0,0,0,4.8-4.8v-4.709a4.806,4.806,0,0,0-3.509-4.622v-5.666a1.683,1.683,0,0,1,1.681-1.681h1.333a4.664,4.664,0,0,1,4.658,4.658v14.611a5.845,5.845,0,0,1-5.839,5.839H8.417a5.845,5.845,0,0,1-5.839-5.839Z" transform="translate(0 -168.926)" fill="#a27a34"/>
        <path id="Path_11587" data-name="Path 11587" d="M413.9,165.76a7.211,7.211,0,0,0-5.367-4.3V150a1.289,1.289,0,1,0-2.578,0v11.35H404V127.374h1.962V143.98a1.289,1.289,0,1,0,2.578,0V127.374H412.9a1.919,1.919,0,0,0,1.883-2.289l-2.953-15.01a1.923,1.923,0,0,0-1.883-1.548h-3.685v-1.385a1.289,1.289,0,0,0-2.578,0v1.385H400a1.923,1.923,0,0,0-1.883,1.548l-2.953,15.01a1.919,1.919,0,0,0,1.883,2.289h4.368v34.086a7.21,7.21,0,0,0-5.367,4.3l-1,2.356a1.769,1.769,0,0,0,1.629,2.457h16.585a1.769,1.769,0,0,0,1.629-2.456Zm-13.358-54.654h8.864l1.831,9.306H398.714Zm-2.338,11.884h13.54l.355,1.807h-14.25Zm-.3,45.005.52-1.232a4.638,4.638,0,0,1,4.281-2.839h4.54a4.638,4.638,0,0,1,4.281,2.839l.52,1.232H397.906Z" transform="translate(-327.04 -92.747)" fill="#a27a34"/>
        <path id="Path_11588" data-name="Path 11588" d="M96.461,42.275a1.289,1.289,0,0,0-1.289,1.289v7.327A2.736,2.736,0,0,0,97.9,53.624h32.49a2.736,2.736,0,0,0,2.733-2.733V32.331a2.736,2.736,0,0,0-2.733-2.733H97.9a2.736,2.736,0,0,0-2.733,2.733v5.218a1.289,1.289,0,1,0,2.578,0V32.331a.155.155,0,0,1,.155-.155h32.49a.155.155,0,0,1,.155.155V47.779l-7.937-7.937a2.223,2.223,0,0,0-3.146,0l-5.317,5.317-5.317-5.317a2.223,2.223,0,0,0-3.146,0L97.75,47.779V43.564A1.289,1.289,0,0,0,96.461,42.275Zm24.578-.359,9.131,9.131H120.036l-4.064-4.064Zm-13.78,0,9.131,9.131H98.129Z" transform="translate(-78.815 -29.598)" fill="#a27a34"/>
        <path id="Path_11589" data-name="Path 11589" d="M191.638,58.252a3.654,3.654,0,1,0-3.654,3.654A3.658,3.658,0,0,0,191.638,58.252Zm-4.729,0a1.076,1.076,0,1,1,1.076,1.076A1.077,1.077,0,0,1,186.909,58.252Z" transform="translate(-152.65 -50.301)" fill="#a27a34"/>
      </g>
    </g>
  </g>
</svg>
